# xmcd CD database file
#
# Track frame offsets:
#	150
#	24365
#	41470
#	65685
#
# Disc length: 1099 seconds
#
# Revision: 2
# Processed by: cddbd v1.5.1PL0 Copyright (c) Steve Scherf et al.
# Submitted via: CDex 1.51
#
DISCID=2b044904
DTITLE=サンフラワーズガーデン - Brand-new
DYEAR=2002
DGENRE=Pop
TTITLE0=Brand-new
TTITLE1=幸せの種
TTITLE2=Brand-new（instrumental）
TTITLE3=幸せの種（instrumental）
EXTD=YEAR: 2002
EXTT0=
EXTT1=
EXTT2=
EXTT3=
PLAYORDER=
